<svg id="Lager_1" data-name="Lager 1" xmlns="http://www.w3.org/2000/svg" viewBox="0 0 765.1479 158.2696"><defs><style>.cls-1{fill:#023e7d;}</style></defs><title>logga2-stjockarefont</title><path d="M164.84,559.8633V466.2627h85.8v14.04H179.01v25.74H236.6v14.04H179.01v25.74h71.63v14.04Z" transform="translate(-94.9233 -459.7627)"/><path d="M260.2588,559.8633v-2.4707l29.51-35.88-29.51-34.58v-2.47h16.38l22.23,26.13,22.36-26.13h16.25v2.47l-29.38,34.58,29.51,35.88v2.4707h-16.38l-22.36-27.4307-22.23,27.4307Z" transform="translate(-94.9233 -459.7627)"/><path d="M365.1665,559.8633a16.8668,16.8668,0,0,1-16.9-16.9v-41.6a16.866,16.866,0,0,1,16.9-16.9h59.54v14.04h-57.59q-2.8608,0-3.835.9751t-.9751,3.835v37.7q0,2.8608.9751,3.835t3.835.9755h57.85v14.04Z" transform="translate(-94.9233 -459.7627)"/><path d="M455.646,559.8633a16.8677,16.8677,0,0,1-16.9-16.9v-83.2h14.04v81.25q0,2.8608.9751,3.835t3.835.9755h12.09v14.04Z" transform="translate(-94.9233 -459.7627)"/><path d="M496.7236,559.8633a16.867,16.867,0,0,1-16.8994-16.9v-58.5h14.04v56.55q0,2.8608.9746,3.835t3.8359.9755h39q2.8564,0,3.834-.9755.9756-.9742.9746-3.835v-56.55h14.041v58.5a16.866,16.866,0,0,1-16.9,16.9Z" transform="translate(-94.9233 -459.7627)"/><path d="M584.4727,559.8633a16.8662,16.8662,0,0,1-16.8995-16.9v-1.95h14.04v.78a3.496,3.496,0,0,0,4.0293,4.03h40.56a3.9411,3.9411,0,0,0,2.99-.9755,4.3709,4.3709,0,0,0,.9091-3.0547v-8.58a4.3757,4.3757,0,0,0-.9091-3.0547,3.9407,3.9407,0,0,0-2.99-.9756h-41.73a16.8645,16.8645,0,0,1-16.8995-16.9v-10.92a16.8653,16.8653,0,0,1,16.8995-16.9h42.9a16.8668,16.8668,0,0,1,16.9,16.9v1.95H630.1025v-.78a4.3759,4.3759,0,0,0-.9091-3.0547,3.9406,3.9406,0,0,0-2.99-.9751h-40.56a3.4955,3.4955,0,0,0-4.0293,4.03v8.58a3.495,3.495,0,0,0,4.0293,4.03h41.73a16.8677,16.8677,0,0,1,16.9,16.9v10.92a16.8677,16.8677,0,0,1-16.9,16.9Z" transform="translate(-94.9233 -459.7627)"/><path d="M657.2715,473.8027v-14.04h14.04v14.04Zm0,86.0606v-75.4h14.04v75.4Z" transform="translate(-94.9233 -459.7627)"/><path d="M722.2715,559.8633l-41.6-75.4h16.25l32.3691,59.54,32.37-59.54h16.25l-41.6,75.4Z" transform="translate(-94.9233 -459.7627)"/><path d="M800.2715,559.8633a16.8677,16.8677,0,0,1-16.9-16.9v-41.6a16.8668,16.8668,0,0,1,16.9-16.9h42.8994a16.8668,16.8668,0,0,1,16.9,16.9v27.82h-62.66v11.83q0,2.8608.9746,3.835t3.836.9755h57.85v14.04Zm-2.86-43.8106h48.49v-12.74q0-2.858-.91-3.835t-3.7695-.9751h-39q-2.8623,0-3.836.9751t-.9746,3.835Z" transform="translate(-94.9233 -459.7627)"/><text x="-94.9233" y="-459.7627"/><path d="M158.4507,559.87H94.958V551.834h15.667V525.6416a8.8915,8.8915,0,0,1,3.1338-6.8457,10.9244,10.9244,0,0,1,7.5859-2.8281H147.731a10.9241,10.9241,0,0,1,7.5864,2.8281,8.8881,8.8881,0,0,1,3.1333,6.8457Zm-8.9053-10.789V526.7578a2.9435,2.9435,0,0,0-.6186-2.1953,3.7816,3.7816,0,0,0-2.4327-.5576H122.5815a3.7849,3.7849,0,0,0-2.4326.5576,2.9437,2.9437,0,0,0-.6181,2.1953v22.3233a2.9421,2.9421,0,0,0,.6181,2.1953,3.7855,3.7855,0,0,0,2.4326.5576h23.9126a3.7822,3.7822,0,0,0,2.4327-.5576A2.9419,2.9419,0,0,0,149.5454,549.0811Z" transform="translate(-94.9233 -459.7627)"/><path d="M103.8638,510.3887H94.958v-8.0366h8.9058Zm54.5869,0H110.625v-8.0366h47.8257Z" transform="translate(-94.9233 -459.7627)"/><path d="M158.4507,482.3359a8.8866,8.8866,0,0,1-3.1333,6.8457,10.9192,10.9192,0,0,1-7.5864,2.8277H95.5356v-8.0362H110.625v-17.71h8.9058v17.71h26.9633a3.7811,3.7811,0,0,0,2.4327-.5581,2.9418,2.9418,0,0,0,.6186-2.1953V466.2632h8.9053Z" transform="translate(-94.9233 -459.7627)"/><text x="-94.9233" y="-459.7627"/><rect class="cls-1" x="562.3388" y="0.0013" width="14.0467" height="14.0467"/><rect class="cls-1" y="42.5868" width="8.9078" height="8.0334"/></svg>