<?xml version="1.0" encoding="utf-8"?>
<!-- Generator: Adobe Illustrator 25.2.1, SVG Export Plug-In . SVG Version: 6.00 Build 0)  -->
<svg version="1.1" id="Lager_1" xmlns="http://www.w3.org/2000/svg" xmlns:xlink="http://www.w3.org/1999/xlink" x="0px" y="0px"
	 viewBox="0 0 765.1 158.3" style="enable-background:new 0 0 765.1 158.3;" xml:space="preserve">
<style type="text/css">
	.st0{fill:#FFFFFF;}
	.st1{fill:#023E7D;}
</style>
<path class="st0" d="M69.9,100.1V6.5h85.8v14H84.1v25.7h57.6v14H84.1v25.7h71.6v14L69.9,100.1z"/>
<path class="st0" d="M165.3,100.1v-2.5l29.5-35.9l-29.5-34.6v-2.5h16.4l22.2,26.1l22.4-26.1h16.3v2.5l-29.4,34.6l29.5,35.9v2.5
	h-16.4l-22.4-27.4l-22.2,27.4H165.3z"/>
<path class="st0" d="M270.2,100.1c-9.3,0-16.9-7.5-16.9-16.8c0,0,0,0,0-0.1V41.6c0-9.3,7.5-16.9,16.8-16.9c0,0,0,0,0.1,0h59.5v14
	h-57.6c-1.9,0-3.2,0.3-3.8,1c-0.6,0.7-1,1.9-1,3.8v37.7c0,1.9,0.3,3.2,1,3.8c0.7,0.6,1.9,1,3.8,1H330v14L270.2,100.1z"/>
<path class="st0" d="M360.7,100.1c-9.3,0-16.9-7.5-16.9-16.8c0,0,0,0,0-0.1V0h14v81.3c0,1.9,0.3,3.2,1,3.8s1.9,1,3.8,1h12.1v14
	L360.7,100.1z"/>
<path class="st0" d="M401.8,100.1c-9.3,0-16.9-7.5-16.9-16.8c0,0,0,0,0-0.1V24.7h14v56.5c0,1.9,0.3,3.2,1,3.8c0.6,0.6,1.9,1,3.8,1
	h39c1.9,0,3.2-0.3,3.8-1c0.7-0.6,1-1.9,1-3.8V24.7h14v58.5c0,9.3-7.5,16.9-16.8,16.9c0,0,0,0-0.1,0H401.8z"/>
<path class="st0" d="M489.5,100.1c-9.3,0-16.9-7.5-16.9-16.8c0,0,0,0,0-0.1v-2h14V82c-0.3,1.9,1,3.7,2.9,4c0.4,0.1,0.8,0.1,1.2,0
	h40.6c1.1,0.1,2.2-0.2,3-1c0.7-0.9,1-2,0.9-3.1v-8.6c0.1-1.1-0.2-2.2-0.9-3.1c-0.8-0.7-1.9-1.1-3-1h-41.7c-9.3,0-16.9-7.5-16.9-16.8
	c0,0,0,0,0-0.1V41.6c0-9.3,7.5-16.9,16.8-16.9c0,0,0,0,0.1,0h42.9c9.3,0,16.9,7.5,16.9,16.8c0,0,0,0,0,0.1v2h-14.2v-0.8
	c0.1-1.1-0.2-2.2-0.9-3.1c-0.8-0.7-1.9-1.1-3-1h-40.6c-1.9-0.3-3.7,1-4,2.9c-0.1,0.4-0.1,0.8,0,1.2v8.6c-0.3,1.9,1,3.7,2.9,4
	c0.4,0.1,0.8,0.1,1.2,0h41.7c9.3,0,16.9,7.5,16.9,16.8c0,0,0,0,0,0.1v10.9c0,9.3-7.5,16.9-16.8,16.9c0,0,0,0-0.1,0H489.5z"/>
<path class="st0" d="M562.3,14V0h14v14H562.3z M562.3,100.1V24.7h14v75.4C576.3,100.1,562.3,100.1,562.3,100.1z"/>
<path class="st0" d="M627.3,100.1l-41.6-75.4H602l32.4,59.5l32.4-59.5H683l-41.6,75.4H627.3z"/>
<path class="st0" d="M705.3,100.1c-9.3,0-16.9-7.5-16.9-16.8c0,0,0,0,0-0.1V41.6c0-9.3,7.5-16.9,16.8-16.9c0,0,0,0,0.1,0h42.9
	c9.3,0,16.9,7.5,16.9,16.8c0,0,0,0,0,0.1v27.8h-62.7v11.8c0,1.9,0.3,3.2,1,3.8c0.6,0.6,1.9,1,3.8,1H765v14L705.3,100.1z M702.5,56.3
	H751V43.5c0-1.9-0.3-3.2-0.9-3.8c-0.6-0.7-1.9-1-3.8-1h-39c-1.9,0-3.2,0.3-3.8,1s-1,1.9-1,3.8V56.3z"/>
<path class="st0" d="M63.5,100.1H0v-8h15.7V65.9c0-2.6,1.1-5.1,3.1-6.8c2.1-1.9,4.8-2.9,7.6-2.8h26.4c2.8-0.1,5.5,0.9,7.6,2.8
	c2,1.7,3.2,4.2,3.1,6.8C63.5,65.9,63.5,100.1,63.5,100.1z M54.6,89.3V67c0.1-0.8-0.1-1.6-0.6-2.2c-0.7-0.5-1.6-0.7-2.4-0.6H27.7
	c-0.9-0.1-1.7,0.1-2.4,0.6c-0.5,0.6-0.7,1.4-0.6,2.2v22.3c-0.1,0.8,0.1,1.6,0.6,2.2c0.7,0.5,1.6,0.7,2.4,0.6h23.9
	c0.9,0.1,1.7-0.1,2.4-0.6C54.5,90.9,54.7,90.1,54.6,89.3L54.6,89.3z"/>
<path class="st0" d="M8.9,50.6H0v-8h8.9V50.6z M63.5,50.6H15.7v-8h47.8V50.6z"/>
<path class="st0" d="M63.5,22.6c0,2.6-1.1,5.1-3.1,6.8c-2.1,1.9-4.8,2.9-7.6,2.8H0.6v-8h15.1V6.5h8.9v17.7h27
	c0.9,0.1,1.7-0.1,2.4-0.6c0.5-0.6,0.7-1.4,0.6-2.2v-15h8.9V22.6z"/>
<rect x="562.3" class="st1" width="14" height="14"/>
<rect y="42.6" class="st1" width="8.9" height="8"/>
</svg>
